# xmcd CD database file
# Copyright (C) 1993-1998 Ti Kan
#
# Track frame offsets:
#	192
#	14070
#	22807
#	38920
#	54460
#	68577
#	79505
#	99567
#	111090
#	124225
#
# Disc length: 1799 seconds
#
# Revision: 1
# Processed by: cddbd v1.4b41PL1 Copyright (c) Steve Scherf et al.
# Submitted via: CDValet v3.31 - Copyright (c) 1997 Greg Leichner
#
DISCID=7807050a
DTITLE=Guitar Slim Jr - The Story Of My Life
DYEAR=1900
DGENRE=
TTITLE0=Trouble Don't Last
TTITLE1=Letter To My Girl Friend
TTITLE2=The Story Of My Life
TTITLE3=Bad Luck Blues
TTITLE4=Can I Change My Mind
TTITLE5=Too Weak To Fight
TTITLE6=Reap What You Sow
TTITLE7=Well I Done Got Over It
TTITLE8=Turn Back The Hands Of TIme
TTITLE9=Sufferin' Mind
EXTD=
EXTT0=
EXTT1=
EXTT2=
EXTT3=
EXTT4=
EXTT5=
EXTT6=
EXTT7=
EXTT8=
EXTT9=
PLAYORDER=
